<svg xmlns="http://www.w3.org/2000/svg" viewBox="0 0 128 128">
  <rect width="128" height="128" rx="28" fill="#191a18"/>
  <rect x="7" y="7" width="114" height="114" rx="23" fill="none" stroke="rgba(255,255,255,0.22)" stroke-width="2"/>
  <path d="M31 39h13l18 49h-13l-5-15H30l-5 15H13l18-49Zm2 24h8l-4-13-4 13Zm37 8c4 5 10 8 17 8 6 0 10-2 10-6 0-3-2-5-8-6l-9-2c-11-2-17-7-17-16 0-10 9-17 23-17 10 0 18 3 24 9l-8 9c-4-4-10-7-17-7-6 0-9 2-9 5 0 4 3 5 9 7l9 2c11 2 16 7 16 15 0 11-9 18-24 18-11 0-21-4-27-11l11-8Z" fill="#f6f1e8"/>
</svg>
